<?xml version="1.0" standalone="no"?>
<!DOCTYPE svg PUBLIC "-//W3C//DTD SVG 20010904//EN"
 "http://www.w3.org/TR/2001/REC-SVG-20010904/DTD/svg10.dtd">
<svg version="1.0" xmlns="http://www.w3.org/2000/svg"
 width="360.000000pt" height="360.000000pt" viewBox="0 0 360.000000 360.000000"
 preserveAspectRatio="xMidYMid meet">
<metadata>
Created by potrace 1.14, written by Peter Selinger 2001-2017
</metadata>
<g transform="translate(0.000000,360.000000) scale(0.100000,-0.100000)"
fill="#000000" stroke="none">
<path d="M1758 3349 c-6 -4 -7 -12 -2 -20 9 -15 8 -248 -1 -257 -9 -9 -6 -52
4 -52 19 0 27 28 29 100 2 45 8 77 15 82 14 10 72 -51 125 -129 35 -53 46 -60
71 -44 11 7 10 10 -5 15 -21 7 -129 150 -129 171 0 7 23 29 50 48 57 39 66 58
33 75 -26 12 -173 21 -190 11z m172 -29 c12 -19 -10 -43 -68 -75 -70 -39 -74
-37 -74 50 0 14 0 30 1 36 2 17 130 7 141 -11z"/>
<path d="M1426 3321 c-3 -5 3 -35 13 -67 21 -69 38 -134 46 -187 4 -22 10 -35
16 -31 6 3 9 17 6 30 -2 13 -3 24 -2 24 1 0 23 -9 48 -20 42 -19 77 -19 77 0
0 4 -17 11 -37 15 -21 4 -46 11 -56 16 -16 9 -16 13 13 49 17 21 26 41 21 44
-5 3 -21 -15 -36 -40 -15 -25 -30 -42 -34 -37 -4 4 -18 54 -32 111 -23 97 -31
114 -43 93z"/>
<path d="M2075 3180 c-15 -6 -9 -8 23 -8 27 1 49 -5 59 -15 19 -19 13 -22 -56
-30 -100 -12 -86 -72 19 -79 l55 -3 3 56 c3 50 1 59 -19 73 -25 17 -53 19 -84
6z m83 -74 c2 -2 -1 -14 -8 -25 -11 -21 -42 -27 -74 -15 -21 8 -20 41 2 47 17
5 72 0 80 -7z"/>
<path d="M1362 3143 c-33 -7 -74 -65 -67 -96 11 -41 39 -61 77 -53 33 7 68 32
68 49 0 6 -10 1 -23 -11 -29 -28 -61 -28 -88 -1 -29 29 -21 61 20 81 35 18 62
39 46 37 -6 -1 -20 -4 -33 -6z"/>
<path d="M2475 3140 c-8 -13 5 -13 25 0 13 8 13 10 -2 10 -9 0 -20 -4 -23 -10z"/>
<path d="M2262 3115 c-12 -9 -20 -21 -17 -26 4 -5 1 -9 -4 -9 -21 0 -11 -41
15 -65 19 -18 38 -25 65 -25 22 0 39 5 39 10 0 6 -11 8 -25 4 -40 -10 -75 19
-75 61 0 46 27 61 75 44 19 -7 38 -10 41 -6 24 24 -82 35 -114 12z"/>
<path d="M1190 3073 c0 -5 10 -27 22 -49 21 -40 21 -43 5 -68 -28 -42 -55 -34
-80 24 -11 28 -27 50 -34 50 -7 0 -13 -2 -13 -5 0 -12 50 -104 59 -110 13 -7
81 21 81 33 0 5 10 12 21 15 21 6 21 6 2 34 -10 15 -24 40 -31 56 -10 24 -32
38 -32 20z"/>
<path d="M2413 3020 c-20 -41 -25 -60 -16 -60 7 0 26 27 43 60 22 43 26 60 17
60 -8 0 -27 -27 -44 -60z"/>
<path d="M790 3011 c-50 -27 -129 -100 -109 -101 9 0 37 -24 62 -52 107 -125
137 -167 137 -193 0 -13 9 -11 48 11 66 38 106 78 136 136 40 77 34 108 -25
138 -39 20 -118 21 -143 2 -13 -11 -56 -22 -56 -15 0 2 5 13 11 25 13 24 4 68
-14 68 -6 -1 -28 -9 -47 -19z m46 -26 c7 -17 -33 -92 -53 -99 -18 -7 -52 14
-59 38 -7 21 8 38 51 60 38 20 54 20 61 1z m187 -56 c36 -16 48 -49 35 -93
-15 -46 -67 -108 -110 -129 -30 -15 -34 -15 -48 1 -40 46 -110 142 -110 151 0
13 58 50 105 67 40 15 98 17 128 3z"/>
<path d="M2517 3023 c-2 -5 -16 -29 -32 -55 -20 -37 -23 -48 -12 -48 8 0 22
15 31 33 9 17 24 42 32 55 15 20 15 22 1 22 -9 0 -18 -3 -20 -7z"/>
<path d="M2578 2993 c12 -8 22 -24 22 -35 0 -22 -30 -78 -42 -78 -4 0 -8 -4
-8 -10 0 -26 31 -5 54 36 32 58 32 68 1 88 -31 21 -57 20 -27 -1z"/>
<path d="M1785 2963 c-156 -9 -339 -55 -460 -115 -451 -225 -708 -718 -630
-1208 42 -260 155 -472 350 -658 209 -199 446 -298 738 -309 209 -8 373 25
548 111 320 158 539 438 621 791 30 129 29 354 0 482 -53 224 -141 390 -296
552 -62 64 -74 80 -49 67 45 -23 89 -21 107 5 19 28 12 47 -38 91 -46 40 -44
56 5 39 53 -18 88 -14 99 12 5 12 9 16 9 10 1 -7 11 -13 22 -13 18 0 13 7 -23
34 -54 42 -88 52 -118 36 -16 -9 -21 -18 -17 -36 2 -14 0 -24 -7 -23 -50 6
-47 -14 9 -67 50 -46 53 -55 29 -79 -20 -19 -54 -14 -95 16 -37 26 -47 58 -23
76 16 12 16 13 -9 13 -22 0 -27 -5 -27 -24 0 -14 7 -31 15 -40 24 -23 17 -32
-7 -9 -79 71 -234 152 -374 196 -104 33 -279 56 -379 50z m953 -89 c45 -31 17
-79 -34 -56 -26 12 -32 40 -12 60 15 15 19 15 46 -4z m-778 -34 c372 -46 687
-283 832 -625 56 -131 70 -198 75 -368 5 -139 3 -169 -17 -254 -46 -197 -143
-374 -282 -511 -154 -151 -319 -239 -525 -281 -342 -70 -695 39 -939 291 -188
194 -280 403 -291 663 -9 208 19 349 105 525 185 379 618 612 1042 560z"/>
<path d="M1879 2644 c-90 -46 -304 -267 -375 -386 -6 -10 -18 -26 -27 -36 -10
-10 -17 -22 -17 -26 0 -4 -8 -20 -18 -34 -48 -70 -61 -215 -27 -282 18 -35 74
-84 111 -99 53 -21 136 7 195 65 67 66 93 127 119 283 23 134 33 166 109 361
44 111 47 130 31 161 -14 25 -44 23 -101 -7z"/>
<path d="M2223 2484 c-21 -31 -43 -65 -49 -75 -6 -11 -21 -30 -33 -43 -11 -12
-21 -27 -21 -32 0 -6 -8 -19 -17 -30 -10 -11 -25 -32 -33 -46 -8 -14 -34 -51
-58 -82 -24 -31 -51 -76 -62 -100 -10 -24 -23 -47 -29 -51 -16 -9 -72 -132
-78 -169 -2 -17 0 -60 6 -95 9 -58 16 -70 58 -114 48 -49 108 -87 138 -87 52
0 167 101 195 170 7 19 19 42 25 50 19 24 63 167 85 277 26 131 28 317 3 383
-17 48 -59 100 -79 100 -7 0 -29 -25 -51 -56z"/>
<path d="M1207 1459 c-47 -40 -62 -90 -46 -156 23 -96 108 -146 167 -100 29
23 52 91 52 153 0 57 -3 66 -34 98 -44 48 -88 49 -139 5z"/>
<path d="M1875 1263 c-16 -8 -51 -36 -77 -61 -61 -59 -65 -102 -17 -157 26
-29 38 -35 71 -35 59 0 123 36 158 89 31 46 34 55 30 105 -4 66 -14 76 -77 76
-33 -1 -71 -8 -88 -17z"/>
<path d="M628 2629 c-16 -32 -28 -67 -28 -78 0 -27 28 -53 50 -46 12 4 19 -1
23 -15 9 -34 33 -23 67 30 18 28 40 50 49 50 45 0 54 -57 18 -111 -25 -37 -55
-49 -68 -27 -6 9 -9 7 -9 -9 0 -29 13 -36 43 -22 58 26 88 146 47 184 -17 15
-24 16 -45 7 -14 -7 -31 -24 -37 -39 -12 -26 -48 -67 -54 -60 -1 1 2 24 8 51
12 56 -1 96 -29 96 -14 0 -15 2 -4 9 9 6 10 14 5 23 -7 12 -16 1 -36 -43z m50
-31 c12 -16 -2 -56 -24 -65 -8 -3 -23 1 -32 10 -13 13 -13 21 -4 42 12 27 43
33 60 13z"/>
<path d="M460 2523 c0 -5 5 -15 10 -23 8 -12 10 -11 10 8 0 12 -4 22 -10 22
-5 0 -10 -3 -10 -7z"/>
<path d="M540 2466 c0 -8 17 -20 38 -27 20 -7 47 -19 60 -27 19 -12 22 -12 22
0 0 8 -25 26 -55 41 -64 31 -65 31 -65 13z"/>
<path d="M524 2369 c-36 -10 -87 -64 -112 -116 l-16 -34 -11 32 c-32 95 -85
40 -101 -106 -3 -28 -2 -45 3 -39 4 7 22 10 38 8 17 -2 46 -6 65 -8 88 -11
196 -39 207 -53 16 -20 15 -21 38 52 30 97 22 186 -22 252 -12 17 -54 23 -89
12z m66 -29 c30 -16 54 -92 47 -154 -3 -29 -11 -62 -17 -73 -12 -18 -17 -19
-79 -7 -36 6 -83 15 -103 18 -27 5 -38 12 -38 24 0 36 58 139 96 170 40 33 63
39 94 22z m-222 -87 c14 -27 21 -88 13 -102 -5 -7 -23 -11 -42 -9 -32 3 -34 5
-33 40 1 37 26 88 44 88 5 0 13 -8 18 -17z"/>
<path d="M3168 2074 c-9 -9 -51 -36 -93 -59 -43 -23 -74 -45 -69 -47 5 -3 43
-13 84 -23 41 -9 84 -23 96 -30 19 -12 21 -12 17 9 -4 17 -10 22 -26 19 -31
-5 -45 7 -49 42 -3 25 2 32 29 45 22 10 33 22 33 38 0 26 -1 27 -22 6z m-55
-94 c5 -21 -14 -27 -48 -13 -15 5 -14 8 6 19 32 18 36 17 42 -6z"/>
<path d="M3020 1858 c0 -10 19 -12 72 -10 l73 3 -72 -73 c-40 -40 -73 -76 -73
-80 0 -4 43 -8 95 -10 l95 -3 0 25 c0 17 -3 21 -9 12 -5 -9 -27 -12 -71 -10
l-63 3 72 69 c39 39 71 74 71 78 0 4 -43 8 -95 8 -69 0 -95 -3 -95 -12z"/>
<path d="M3010 1630 c0 -24 3 -25 63 -28 34 -1 77 -7 95 -12 27 -7 32 -6 32 9
0 15 -13 19 -87 25 -51 4 -90 12 -95 19 -5 7 -8 3 -8 -13z"/>
<path d="M3177 1518 c2 -13 -2 -31 -9 -40 -12 -15 -19 -15 -88 -2 -40 8 -78
20 -82 27 -5 7 -8 2 -8 -15 0 -24 4 -28 28 -28 15 -1 56 -7 92 -15 36 -7 66
-13 67 -12 8 9 14 107 6 107 -6 0 -8 -10 -6 -22z"/>
<path d="M2998 1405 c-49 -27 -71 -92 -47 -138 49 -95 189 -64 189 42 0 77
-80 130 -142 96z m108 -46 c41 -38 27 -97 -28 -118 -46 -17 -112 12 -122 55
-7 26 15 78 36 88 26 11 90 -3 114 -25z"/>
<path d="M2888 1183 c-17 -20 -41 -64 -36 -66 72 -36 108 -56 134 -73 l32 -22
10 24 c9 19 9 22 -4 17 -20 -7 -65 24 -58 41 3 8 22 17 42 21 61 10 71 15 84
38 10 19 9 20 -4 9 -8 -6 -35 -16 -60 -20 -42 -8 -45 -7 -61 20 -19 33 -56 38
-79 11z m60 -19 c24 -16 27 -31 13 -53 -8 -13 -15 -12 -50 4 -46 21 -47 22
-24 47 20 22 32 23 61 2z"/>
<path d="M817 1116 c-3 -8 -29 -32 -57 -52 -63 -45 -84 -82 -69 -121 30 -80
88 -86 181 -17 77 56 71 51 64 63 -4 6 -33 -11 -69 -40 -87 -70 -119 -75 -152
-26 -27 42 4 83 130 169 6 5 4 13 -6 23 -15 15 -17 15 -22 1z"/>
<path d="M2780 1038 c0 -3 22 -43 50 -89 27 -46 50 -88 50 -93 0 -5 6 -3 14 3
12 10 10 16 -10 38 -30 32 -30 34 -1 62 20 18 28 20 51 11 37 -14 44 -13 55 9
9 16 8 18 -8 14 -15 -4 -137 25 -188 44 -7 3 -13 3 -13 1z m98 -53 c2 -2 -3
-13 -11 -25 l-15 -22 -17 32 -17 33 29 -7 c15 -4 30 -9 31 -11z"/>
<path d="M2678 963 c-66 -51 -83 -105 -54 -162 34 -64 113 -80 178 -36 50 34
62 57 43 81 -12 15 -14 16 -9 2 9 -25 -11 -54 -52 -73 -104 -49 -205 80 -122
157 23 22 39 29 59 26 24 -4 26 -2 15 14 -14 23 -16 23 -58 -9z"/>
<path d="M898 899 c-70 -84 -85 -99 -94 -91 -5 4 0 -3 10 -15 22 -26 28 -29
21 -10 -3 6 15 35 40 62 l44 50 2 -60 c0 -33 4 -82 7 -108 l7 -49 68 76 c65
72 67 75 46 87 -15 8 -19 8 -15 0 7 -11 -62 -110 -76 -111 -5 0 -8 26 -9 58 0
31 -4 79 -7 106 l-7 49 -37 -44z"/>
<path d="M1093 796 c0 -7 -21 -45 -46 -84 -45 -70 -46 -72 -25 -83 11 -6 18
-7 14 -1 -3 5 17 44 44 86 45 69 48 77 31 85 -13 7 -18 6 -18 -3z"/>
<path d="M2480 765 c-14 -8 -19 -14 -13 -15 7 0 19 -13 28 -30 l15 -29 -51
-24 -50 -25 -17 34 c-17 37 -20 38 -42 24 -10 -6 -11 -10 -3 -10 7 0 29 -35
50 -77 21 -43 38 -79 39 -81 1 -1 8 0 17 4 14 5 13 11 -9 44 -14 22 -23 44
-19 50 4 7 26 21 49 31 l41 18 21 -43 c14 -31 24 -42 33 -37 10 6 3 28 -28 88
-22 45 -37 83 -34 87 10 10 0 6 -27 -9z"/>
<path d="M1142 715 c-79 -66 -33 -175 73 -175 28 0 44 7 66 31 48 52 35 120
-31 154 -42 22 -74 19 -108 -10z m121 -17 c31 -36 13 -126 -28 -142 -77 -29
-136 58 -88 130 30 47 81 52 116 12z"/>
<path d="M2230 661 c-84 -27 -85 -28 -80 -57 2 -16 4 -56 5 -88 0 -57 -1 -60
-29 -69 -43 -14 -73 23 -82 103 -6 56 -8 60 -33 60 -17 0 -22 -3 -13 -8 7 -5
17 -37 23 -72 7 -35 20 -71 30 -81 26 -26 79 -24 108 3 21 19 23 28 18 82 -3
34 -8 69 -12 79 -6 13 -4 18 6 16 8 -2 25 3 38 10 13 7 27 9 31 4 10 -10 50
-131 50 -151 0 -9 6 -12 16 -8 9 3 21 6 27 6 6 0 4 6 -4 13 -8 6 -26 43 -39
81 -25 74 -20 91 27 83 14 -3 20 0 16 10 -6 16 0 17 -103 -16z"/>
<path d="M1356 662 c-3 -5 -14 -41 -25 -82 -12 -41 -26 -77 -33 -82 -9 -5 -9
-8 -1 -8 6 0 19 -3 27 -6 12 -5 15 -2 10 10 -6 17 13 104 26 119 4 5 24 -25
45 -65 63 -122 60 -121 85 -37 12 40 26 84 31 96 6 17 5 23 -5 23 -8 0 -18
-23 -26 -57 -7 -32 -15 -64 -19 -70 -4 -7 -26 24 -54 77 -27 50 -50 90 -52 90
-2 0 -6 -4 -9 -8z"/>
<path d="M1667 622 c-26 -29 -20 -57 23 -107 45 -52 46 -57 24 -79 -22 -23
-50 -20 -69 7 l-16 22 3 -25 c3 -22 9 -25 45 -28 33 -2 44 1 57 20 25 35 19
62 -24 109 -42 46 -46 65 -18 83 13 8 23 8 39 -2 11 -7 24 -11 27 -7 10 9 -20
25 -49 25 -14 0 -33 -8 -42 -18z"/>
<path d="M1827 589 c-28 -16 -49 -68 -43 -104 9 -47 45 -76 95 -77 97 -1 147
98 82 163 -24 23 -38 29 -73 29 -24 0 -51 -5 -61 -11z m112 -25 c46 -58 16
-144 -49 -144 -69 0 -109 101 -60 150 30 30 83 27 109 -6z"/>
</g>
</svg>
